<svg width="25" height="25" viewBox="0 0 25 25" fill="none" xmlns="http://www.w3.org/2000/svg">
<path d="M5.35713 6.25042C5.35713 6.0086 5.26878 5.79934 5.09207 5.62263C4.91536 5.44592 4.70609 5.35756 4.46428 5.35756C4.22246 5.35756 4.0132 5.44592 3.83649 5.62263C3.65978 5.79934 3.57142 6.0086 3.57142 6.25042C3.57142 6.49223 3.65978 6.7015 3.83649 6.87821C4.0132 7.05492 4.22246 7.14328 4.46428 7.14328C4.70609 7.14328 4.91536 7.05492 5.09207 6.87821C5.26878 6.7015 5.35713 6.49223 5.35713 6.25042ZM21.4286 14.2861C21.4286 13.9606 21.3286 13.5839 21.1286 13.1561C20.9287 12.7283 20.6799 12.5097 20.3822 12.5004C20.5218 12.3423 20.638 12.1214 20.731 11.8378C20.824 11.5541 20.8705 11.296 20.8705 11.0635C20.8705 10.4217 20.6241 9.86835 20.1311 9.40332C20.2985 9.1057 20.3822 8.78483 20.3822 8.44071C20.3822 8.09659 20.3009 7.75479 20.1381 7.41532C19.9753 7.07585 19.7545 6.83171 19.4754 6.6829C19.5219 6.40388 19.5452 6.14346 19.5452 5.90165C19.5452 5.1111 19.3173 4.52516 18.8616 4.14383C18.4059 3.76251 17.7734 3.57185 16.9643 3.57185H15.1786C13.9602 3.57185 12.3698 3.91132 10.4074 4.59026C10.3609 4.60886 10.226 4.65769 10.0028 4.73675C9.77957 4.8158 9.61448 4.87393 9.50752 4.91113C9.40057 4.94834 9.23781 5.00181 9.01924 5.07157C8.80068 5.14132 8.62397 5.19248 8.48911 5.22503C8.35425 5.25758 8.20079 5.28781 8.02873 5.31571C7.85667 5.34361 7.71018 5.35756 7.58928 5.35756H7.14285V14.2861H7.58928C7.73809 14.2861 7.90317 14.328 8.08453 14.4117C8.26589 14.4954 8.45191 14.621 8.64257 14.7884C8.83323 14.9558 9.01227 15.1209 9.17968 15.2836C9.34709 15.4464 9.5331 15.651 9.73771 15.8975C9.94233 16.1439 10.1028 16.3416 10.219 16.4904C10.3353 16.6392 10.4818 16.8298 10.6585 17.0624C10.8352 17.2949 10.9421 17.4344 10.9793 17.4809C11.4909 18.1133 11.8489 18.5365 12.0536 18.7504C12.4349 19.1503 12.7116 19.6596 12.8836 20.278C13.0557 20.8965 13.1975 21.4801 13.3091 22.0289C13.4207 22.5776 13.5975 22.9729 13.8393 23.2147C14.7321 23.2147 15.3274 22.9961 15.625 22.559C15.9226 22.1219 16.0714 21.4476 16.0714 20.5361C16.0714 19.9874 15.8482 19.241 15.4018 18.297C14.9553 17.353 14.7321 16.6113 14.7321 16.0718H19.6428C20.1079 16.0718 20.5218 15.8928 20.8845 15.5347C21.2472 15.1767 21.4286 14.7605 21.4286 14.2861ZM23.2143 14.3001C23.2143 15.258 22.8609 16.0904 22.154 16.7973C21.4472 17.5041 20.6101 17.8576 19.6428 17.8576H17.1875C17.6339 18.7783 17.8571 19.6712 17.8571 20.5361C17.8571 21.6336 17.6944 22.4986 17.3689 23.131C17.0433 23.7727 16.569 24.2447 15.9459 24.547C15.3227 24.8493 14.6205 25.0004 13.8393 25.0004C13.3649 25.0004 12.9464 24.8284 12.5837 24.4842C12.2675 24.1773 12.0164 23.796 11.8303 23.3403C11.6443 22.8845 11.5258 22.4637 11.4746 22.0777C11.4234 21.6917 11.3421 21.2988 11.2305 20.8989C11.1189 20.4989 10.9747 20.2013 10.798 20.006C10.3516 19.541 9.85397 18.9504 9.30524 18.2342C8.36588 17.0159 7.72879 16.2951 7.39396 16.0718H3.57142C3.07849 16.0718 2.65764 15.8975 2.30886 15.5487C1.96009 15.1999 1.78571 14.7791 1.78571 14.2861V5.35756C1.78571 4.86463 1.96009 4.44378 2.30886 4.09501C2.65764 3.74623 3.07849 3.57185 3.57142 3.57185H7.58928C7.79389 3.57185 8.43563 3.38584 9.5145 3.01381C10.705 2.60459 11.742 2.29767 12.6255 2.09305C13.5091 1.88844 14.4392 1.78613 15.4157 1.78613H16.9782C18.2803 1.78613 19.3336 2.15351 20.1381 2.88825C20.9426 3.623 21.3402 4.62746 21.3309 5.90165V5.9714C21.8889 6.68755 22.168 7.5153 22.168 8.45466C22.168 8.65927 22.154 8.85924 22.1261 9.05455C22.4795 9.67769 22.6562 10.3473 22.6562 11.0635C22.6562 11.3983 22.6144 11.7192 22.5307 12.0261C22.9864 12.7143 23.2143 13.4723 23.2143 14.3001Z" fill="#FAFAFA"/>
</svg>
