<svg width="16" height="10" viewBox="0 0 16 10" fill="none" xmlns="http://www.w3.org/2000/svg">
<path d="M7.72393 1.78571C10.7781 1.78571 12.9073 3.722 13.8336 4.766C12.933 5.94693 10.8039 8.21429 7.72393 8.21429C4.8825 8.21429 2.62607 5.94114 1.63093 4.73836C2.59071 3.67957 4.72757 1.78571 7.72393 1.78571ZM7.72393 0.5C2.85814 0.5 0 4.71136 0 4.71136C0 4.71136 3.10821 9.5 7.72393 9.5C12.6951 9.5 15.4286 4.71136 15.4286 4.71136C15.4286 4.71136 12.6701 0.5 7.72393 0.5ZM7.71429 2.42857C6.29421 2.42857 5.14286 3.58057 5.14286 5C5.14286 6.42007 6.29421 7.57143 7.71429 7.57143C9.13436 7.57143 10.2857 6.42007 10.2857 5C10.2857 3.58057 9.13436 2.42857 7.71429 2.42857Z" fill="#33669A"/>
</svg>
