<svg width="45" height="49" viewBox="0 0 45 49" fill="none" xmlns="http://www.w3.org/2000/svg">
<path d="M16.6317 46.0619L16.6299 46.0609L6.36995 40.1389L6.36962 40.1388C2.74445 38.05 0.5 34.1651 0.5 29.988V18.144C0.5 13.9669 2.74445 10.082 6.36962 7.99323L6.36995 7.99304L16.63 2.07104L16.6317 2.07004C18.4073 1.03573 20.4441 0.5 22.5 0.5C24.5559 0.5 26.5927 1.03573 28.3683 2.07004L28.3701 2.07104L38.6301 7.99304L38.6304 7.99323C42.2555 10.082 44.5 13.9669 44.5 18.144V29.988C44.5 34.1651 42.2555 38.05 38.6304 40.1388L38.63 40.1389L28.3715 46.0601C28.3713 46.0602 28.3711 46.0603 28.371 46.0604C26.5911 47.0799 24.5707 47.632 22.5 47.632C20.4441 47.632 18.4073 47.0963 16.6317 46.0619Z" stroke="url(#paint0_linear_437:697)"/>
<defs>
<linearGradient id="paint0_linear_437:697" x1="7.91667" y1="6.23933" x2="41.7699" y2="38.7226" gradientUnits="userSpaceOnUse">
<stop stop-color="#294170"/>
<stop offset="1" stop-color="#4267B2"/>
</linearGradient>
</defs>
</svg>
