<svg width="27" height="28" viewBox="0 0 27 28" fill="none" xmlns="http://www.w3.org/2000/svg">
<path d="M13.2975 0.812877C7.851 0.812877 2.679 0.328377 0.703503 5.39838C-0.112497 7.49238 0.00600288 10.2119 0.00600288 14.1059C0.00600288 17.5229 -0.103497 20.7344 0.703503 22.8119C2.6745 27.8849 7.8885 27.3989 13.2945 27.3989C18.51 27.3989 23.8875 27.9419 25.887 22.8119C26.7045 20.6969 26.5845 18.0179 26.5845 14.1059C26.5845 8.91288 26.871 5.56038 24.3525 3.04338C21.8025 0.493377 18.354 0.812877 13.2915 0.812877H13.2975ZM12.1065 3.20838C23.4675 3.19038 24.9135 1.92738 24.1155 19.4729C23.832 25.6784 19.107 24.9974 13.299 24.9974C2.709 24.9974 2.4045 24.6944 2.4045 14.0999C2.4045 3.38238 3.2445 3.21438 12.1065 3.20538V3.20838ZM20.3925 5.41488C19.512 5.41488 18.798 6.12888 18.798 7.00938C18.798 7.88988 19.512 8.60388 20.3925 8.60388C21.273 8.60388 21.987 7.88988 21.987 7.00938C21.987 6.12888 21.273 5.41488 20.3925 5.41488ZM13.2975 7.27938C9.528 7.27938 6.4725 10.3364 6.4725 14.1059C6.4725 17.8754 9.528 20.9309 13.2975 20.9309C17.067 20.9309 20.121 17.8754 20.121 14.1059C20.121 10.3364 17.067 7.27938 13.2975 7.27938ZM13.2975 9.67488C19.155 9.67488 19.1625 18.5369 13.2975 18.5369C7.4415 18.5369 7.4325 9.67488 13.2975 9.67488Z" fill="url(#paint0_linear_437:718)"/>
<defs>
<linearGradient id="paint0_linear_437:718" x1="1.78559" y1="25.6815" x2="26.4438" y2="4.3528" gradientUnits="userSpaceOnUse">
<stop stop-color="#FFDD55"/>
<stop offset="0.5" stop-color="#FF543E"/>
<stop offset="1" stop-color="#C837AB"/>
</linearGradient>
</defs>
</svg>
