<?xml version="1.0" encoding="utf-8"?>
<!-- Generator: Adobe Illustrator 18.0.0, SVG Export Plug-In . SVG Version: 6.00 Build 0)  -->
<!DOCTYPE svg PUBLIC "-//W3C//DTD SVG 1.1//EN" "http://www.w3.org/Graphics/SVG/1.1/DTD/svg11.dtd">
<svg version="1.1" id="Layer_1" xmlns="http://www.w3.org/2000/svg" xmlns:xlink="http://www.w3.org/1999/xlink" x="0px" y="0px"
	 viewBox="37.747 28.646 24.458 34.34" style="enable-background:new 37.747 28.646 24.458 34.34;" xml:space="preserve">
<style type="text/css">
	.st0{fill:#231815;}
</style>
<path class="st0" d="M48.133,45.764c0.071,6.254-3.663,11.861-9.387,14.33c-0.891,0.384-0.417,1.542,0.265,1.797
	c4.142,1.556,8.725,1.452,12.793-0.29c4.067-1.742,7.305-4.988,9.037-9.06c1.666-3.971,1.834-8.522,0.347-12.581
	c-0.791-2.182-2.017-4.181-3.602-5.875c-1.586-1.695-3.499-3.051-5.623-3.985c-2.125-0.934-4.416-1.428-6.737-1.452
	c-2.321-0.024-4.622,0.424-6.765,1.316c-0.67,0.279-1.105,1.455-0.203,1.805c5.811,2.272,9.733,7.74,9.881,13.994
	c0.03,1.265,1.993,1.231,1.963-0.034c-0.162-6.887-4.465-13.168-10.904-15.684l-0.203,1.805c3.845-1.601,8.249-1.69,12.085-0.006
	c3.409,1.498,6.164,4.174,7.76,7.538c3.31,6.967,0.576,15.574-6.005,19.5c-4.041,2.412-8.962,2.749-13.35,1.099l0.265,1.797
	c6.346-2.738,10.428-9.167,10.351-16.055C50.081,44.465,48.119,44.5,48.133,45.764z"/>
</svg>
