<svg width="20" height="25" viewBox="0 0 20 25" fill="none" xmlns="http://www.w3.org/2000/svg">
<path fill-rule="evenodd" clip-rule="evenodd" d="M4.60608 24.86C5.97908 23.5761 6.94845 21.9202 7.39579 20.0944L8.34306 16.4811C8.8346 17.4316 10.2962 18.2292 11.8196 18.2292C16.403 18.2292 19.7005 14.0202 19.7005 8.78906C19.7005 3.76628 15.6054 0 10.3352 0C3.776 0 0.299438 4.4043 0.299438 9.19596C0.299438 11.4193 1.48433 14.196 3.38212 15.0749C3.66532 15.2181 3.82157 15.1497 3.88668 14.8665C3.93225 14.6484 4.19267 13.6263 4.31311 13.1413C4.33576 13.0653 4.33806 12.9847 4.31978 12.9076C4.3015 12.8305 4.26328 12.7595 4.20894 12.7018C3.47624 11.6953 3.07981 10.4832 3.07613 9.23828C3.07613 5.88867 5.61194 2.64323 9.9316 2.64323C13.6653 2.64323 16.276 5.17904 16.276 8.82812C16.276 12.9395 14.2024 15.791 11.5006 15.791C10.0065 15.791 8.89645 14.5605 9.25452 13.0436C9.68746 11.2142 10.5078 9.26432 10.5078 7.96549C10.5078 6.80339 9.88928 5.83333 8.58395 5.83333C7.054 5.83333 5.83655 7.4056 5.83655 9.52474C5.82664 10.2999 5.97968 11.0684 6.28577 11.7806C6.28577 11.7806 4.78512 18.1413 4.50842 19.3327C4.20243 20.6348 4.31962 22.487 4.45634 23.6914L4.5898 24.8698L4.60608 24.86Z" fill="#BD081B"/>
</svg>
