<svg width="40" height="40" viewBox="0 0 40 40" fill="none" xmlns="http://www.w3.org/2000/svg">
<path fill-rule="evenodd" clip-rule="evenodd" d="M20 0C31.0383 0 40 8.96167 40 20C40 31.0383 31.0383 40 20 40C8.96167 40 0 31.0383 0 20C0 8.96167 8.96167 0 20 0ZM33.545 32.35C33.075 31.6817 32.2583 31.26 30.8383 30.9333C24.425 29.4233 24.01 28.4317 23.585 27.5017C23.1533 26.56 23.2683 25.4517 23.9267 24.2067C26.8033 18.7783 27.41 14.1667 25.6383 11.2233C24.515 9.35833 22.5133 8.33333 20 8.33333C17.465 8.33333 15.4467 9.37667 14.3183 11.2717C12.5417 14.2533 13.1633 18.845 16.0667 24.2C16.7367 25.4367 16.86 26.5433 16.4333 27.49C15.9917 28.4667 15.415 29.4733 9.15833 30.9333C7.73833 31.26 6.92167 31.6817 6.45333 32.3467C9.80667 36.025 14.6367 38.3333 20 38.3333C25.3633 38.3333 30.1917 36.025 33.545 32.35ZM34.6283 31.0467C36.9533 27.9733 38.3333 24.1467 38.3333 20C38.3333 9.88167 30.1183 1.66667 20 1.66667C9.88167 1.66667 1.66667 9.88167 1.66667 20C1.66667 24.145 3.045 27.9717 5.37 31.0433C6.05167 30.29 7.11833 29.6933 8.785 29.3083C12.16 28.5383 14.4117 27.915 14.915 26.805C15.1183 26.3517 15.0167 25.7583 14.6017 24.9933C11.4067 19.1017 10.7983 13.925 12.885 10.4183C14.3067 8.03333 16.8983 6.66667 20 6.66667C23.075 6.66667 25.6517 8.01333 27.0667 10.3633C29.1517 13.8283 28.56 19.0217 25.4 24.9867C24.9917 25.7583 24.8933 26.355 25.1017 26.81C25.61 27.9233 27.8417 28.54 31.2133 29.3083C32.88 29.6917 33.9467 30.2917 34.6283 31.0467Z" fill="#254D9B"/>
</svg>
