<?xml version="1.0" encoding="utf-8"?>
<!-- Generator: Adobe Illustrator 18.0.0, SVG Export Plug-In . SVG Version: 6.00 Build 0)  -->
<!DOCTYPE svg PUBLIC "-//W3C//DTD SVG 1.1//EN" "http://www.w3.org/Graphics/SVG/1.1/DTD/svg11.dtd">
<svg version="1.1" id="Layer_1" xmlns="http://www.w3.org/2000/svg" xmlns:xlink="http://www.w3.org/1999/xlink" x="0px" y="0px"
	 viewBox="6.563 6.528 46.95 46.95" style="enable-background:new 6.563 6.528 46.95 46.95;" xml:space="preserve">
<style type="text/css">
	.st0{fill:#FDAC34;}
</style>
<path class="st0" d="M30.037,44.786c-8.152,0-14.783-6.632-14.783-14.783c0-8.151,6.631-14.782,14.783-14.782
	c8.151,0,14.783,6.631,14.783,14.782C44.82,38.154,38.189,44.786,30.037,44.786z M30.037,17.095c-7.118,0-12.908,5.79-12.908,12.907
	c0,7.118,5.791,12.908,12.908,12.908c7.117,0,12.908-5.791,12.908-12.908C42.945,22.886,37.155,17.095,30.037,17.095z"/>
<path class="st0" d="M30.037,53.478c-0.517,0-0.938-0.42-0.938-0.938v-5.004c0-0.518,0.42-0.938,0.938-0.938s0.938,0.42,0.938,0.938
	v5.004C30.975,53.057,30.555,53.478,30.037,53.478z"/>
<path class="st0" d="M30.037,13.408c-0.517,0-0.938-0.42-0.938-0.938V7.465c0-0.517,0.42-0.938,0.938-0.938s0.938,0.42,0.938,0.938
	v5.005C30.975,12.988,30.555,13.408,30.037,13.408z"/>
<path class="st0" d="M52.575,30.94H47.57c-0.517,0-0.938-0.42-0.938-0.938s0.42-0.938,0.938-0.938h5.004
	c0.517,0,0.938,0.42,0.938,0.938C53.512,30.52,53.092,30.94,52.575,30.94z"/>
<path class="st0" d="M12.504,30.94H7.5c-0.517,0-0.938-0.42-0.938-0.938s0.42-0.938,0.938-0.938h5.004
	c0.517,0,0.938,0.42,0.938,0.938C13.442,30.52,13.022,30.94,12.504,30.94z"/>
<path class="st0" d="M45.973,46.877c-0.24,0-0.479-0.091-0.663-0.275l-3.538-3.539c-0.366-0.366-0.366-0.96,0-1.326
	c0.366-0.366,0.959-0.366,1.326,0l3.538,3.539c0.366,0.366,0.366,0.959,0,1.326C46.453,46.786,46.213,46.877,45.973,46.877z"/>
<path class="st0" d="M17.639,18.543c-0.24,0-0.479-0.091-0.663-0.275l-3.538-3.539c-0.366-0.366-0.366-0.96,0-1.326
	c0.366-0.366,0.96-0.366,1.326,0l3.538,3.539c0.366,0.366,0.366,0.96,0,1.326C18.119,18.451,17.879,18.543,17.639,18.543z"/>
<path class="st0" d="M42.435,18.543c-0.24,0-0.479-0.091-0.663-0.275c-0.366-0.366-0.366-0.96,0-1.326l3.539-3.539
	c0.366-0.366,0.96-0.366,1.326,0c0.366,0.366,0.366,0.96,0,1.326l-3.539,3.539C42.915,18.451,42.674,18.543,42.435,18.543z"/>
<path class="st0" d="M14.101,46.877c-0.24,0-0.479-0.091-0.663-0.275c-0.366-0.366-0.366-0.96,0-1.326l3.539-3.539
	c0.366-0.366,0.959-0.366,1.326,0c0.366,0.366,0.366,0.96,0,1.326l-3.539,3.539C14.58,46.786,14.341,46.877,14.101,46.877z"/>
</svg>
