<svg width="26" height="22" viewBox="0 0 26 22" fill="none" xmlns="http://www.w3.org/2000/svg">
<path d="M9.48291 18.5537C8.70947 18.5537 8.77979 18.2725 8.56885 17.5693L6.31885 10.1865L23.5454 0.0615234" fill="currentColor"/>
<path d="M9.48285 18.5537C9.97504 18.5537 10.2563 18.2725 10.6078 17.9912L13.7719 14.9678L9.83441 12.5771" fill="currentColor"/>
<path d="M9.93442 14.0771L19.4266 21.038C20.411 21.6708 21.2547 21.3193 21.536 20.0537L25.4032 1.91303C25.7547 0.366153 24.7704 -0.336972 23.7157 0.155216L1.14536 8.87397C-0.331204 9.43647 -0.331204 10.3505 0.864109 10.7021L6.70005 12.5302L20.0594 4.0224C20.6922 3.67084 21.2547 3.81147 20.8329 4.30365" fill="#37AEE2"/>
</svg>
