<svg width="25" height="20" viewBox="0 0 25 20" fill="none" xmlns="http://www.w3.org/2000/svg">
<path d="M24.1875 2.29927C23.3539 2.8522 22.3753 3.1458 21.375 3.14302C22.4444 2.51303 23.2451 1.51214 23.625 0.330519C22.7385 1.07992 21.6215 1.50192 20.4609 1.52583C19.6958 0.742152 18.6971 0.22776 17.6148 0.0598499C16.5324 -0.10806 15.4249 0.0795695 14.4582 0.594581C13.4916 1.10959 12.718 1.92421 12.2537 2.91617C11.7893 3.90813 11.6592 5.02394 11.8828 6.09614C9.9136 5.99218 7.98826 5.47522 6.23182 4.57882C4.47537 3.68243 2.92709 2.42665 1.6875 0.893019C1.08092 1.99062 0.903318 3.2743 1.1891 4.49537C1.47488 5.71644 2.2037 6.78797 3.23438 7.50239C2.45652 7.51338 1.6866 7.34496 0.984375 7.0102C1.00329 8.14282 1.40151 9.23637 2.11535 10.1159C2.82919 10.9955 3.81739 11.6102 4.92188 11.8618C4.18666 12.0538 3.41765 12.0778 2.67188 11.9321C2.99359 12.9355 3.62037 13.8135 4.46484 14.4436C5.3093 15.0738 6.32937 15.4248 7.38281 15.4477C5.15794 16.7974 2.6022 17.5033 0 17.4868C2.17936 18.9096 4.71081 19.6996 7.31257 19.769C9.91432 19.8384 12.4843 19.1844 14.7364 17.8798C16.9885 16.5751 18.8343 14.6711 20.0685 12.3797C21.3026 10.0882 21.8766 7.49918 21.7266 4.90083C22.6544 4.14206 23.4814 3.26779 24.1875 2.29927Z" fill="#1DA1F2"/>
</svg>
