<svg width="23" height="24" viewBox="0 0 23 24" fill="none" xmlns="http://www.w3.org/2000/svg">
<path d="M4.35716 18.75C4.35716 18.5082 4.26881 18.2989 4.0921 18.1222C3.91539 17.9455 3.70612 17.8571 3.46431 17.8571C3.22249 17.8571 3.01323 17.9455 2.83652 18.1222C2.65981 18.2989 2.57145 18.5082 2.57145 18.75C2.57145 18.9918 2.65981 19.2011 2.83652 19.3778C3.01323 19.5545 3.22249 19.6429 3.46431 19.6429C3.70612 19.6429 3.91539 19.5545 4.0921 19.3778C4.26881 19.2011 4.35716 18.9918 4.35716 18.75ZM20.4286 10.7143C20.4286 10.24 20.2472 9.82375 19.8845 9.46568C19.5218 9.10761 19.1079 8.92857 18.6429 8.92857H13.7322C13.7322 8.38914 13.9554 7.64741 14.4018 6.7034C14.8482 5.75939 15.0714 5.01302 15.0714 4.46429C15.0714 3.55283 14.9226 2.87853 14.625 2.44141C14.3274 2.00428 13.7322 1.78571 12.8393 1.78571C12.5975 2.02753 12.4208 2.42281 12.3092 2.97154C12.1976 3.52028 12.0557 4.10389 11.8837 4.72238C11.7116 5.34087 11.4349 5.85007 11.0536 6.25C10.849 6.46391 10.4909 6.88709 9.97937 7.51953C9.94217 7.56603 9.83521 7.70554 9.6585 7.93806C9.48179 8.17057 9.33531 8.36123 9.21905 8.51004C9.10279 8.65885 8.94236 8.85649 8.73774 9.10296C8.53313 9.34942 8.34712 9.55404 8.17971 9.7168C8.0123 9.87956 7.83326 10.0446 7.6426 10.2121C7.45194 10.3795 7.26593 10.505 7.08456 10.5887C6.9032 10.6724 6.73812 10.7143 6.58931 10.7143H6.14288V19.6429H6.58931C6.71021 19.6429 6.8567 19.6568 7.02876 19.6847C7.20082 19.7126 7.35428 19.7428 7.48914 19.7754C7.624 19.8079 7.80071 19.8591 8.01927 19.9289C8.23784 19.9986 8.4006 20.0521 8.50755 20.0893C8.61451 20.1265 8.7796 20.1846 9.00281 20.2637C9.22603 20.3427 9.36088 20.3916 9.40739 20.4102C11.3698 21.0891 12.9602 21.4286 14.1786 21.4286H15.8667C17.6524 21.4286 18.5452 20.652 18.5452 19.0988C18.5452 18.857 18.522 18.5965 18.4755 18.3175C18.7545 18.1687 18.9754 17.9246 19.1381 17.5851C19.3009 17.2456 19.3823 16.9038 19.3823 16.5597C19.3823 16.2156 19.2986 15.8947 19.1312 15.5971C19.6241 15.1321 19.8706 14.5787 19.8706 13.9369C19.8706 13.7044 19.8241 13.4463 19.731 13.1627C19.638 12.879 19.5218 12.6581 19.3823 12.5C19.6799 12.4907 19.9287 12.2721 20.1286 11.8443C20.3286 11.4165 20.4286 11.0398 20.4286 10.7143ZM22.2143 10.7003C22.2143 11.5281 21.9864 12.2861 21.5307 12.9743C21.6144 13.2812 21.6563 13.6021 21.6563 13.9369C21.6563 14.6531 21.4796 15.3227 21.1261 15.9459C21.154 16.1412 21.168 16.3411 21.168 16.5458C21.168 17.4851 20.889 18.3129 20.3309 19.029C20.3402 20.3218 19.945 21.3425 19.1451 22.0912C18.3453 22.8399 17.2896 23.2143 15.9783 23.2143H14.1786C13.2857 23.2143 12.4045 23.1097 11.5349 22.9004C10.6653 22.6911 9.6585 22.3865 8.51453 21.9866C7.43566 21.6146 6.79392 21.4286 6.58931 21.4286H2.57145C2.07852 21.4286 1.65767 21.2542 1.30889 20.9054C0.960122 20.5566 0.785736 20.1358 0.785736 19.6429V10.7143C0.785736 10.2214 0.960122 9.8005 1.30889 9.45173C1.65767 9.10296 2.07852 8.92857 2.57145 8.92857H6.39399C6.72882 8.70536 7.36591 7.98456 8.30527 6.76618C8.8447 6.06864 9.34228 5.4734 9.79801 4.98047C10.0212 4.74795 10.1863 4.35035 10.2933 3.78767C10.4002 3.22498 10.5421 2.63672 10.7188 2.02288C10.8955 1.40904 11.1838 0.906808 11.5837 0.516183C11.9464 0.172061 12.365 0 12.8393 0C13.6206 0 14.3228 0.151135 14.9459 0.453404C15.569 0.755673 16.0434 1.22768 16.3689 1.86942C16.6944 2.51116 16.8572 3.37612 16.8572 4.46429C16.8572 5.32924 16.6339 6.2221 16.1875 7.14286H18.6429C19.6101 7.14286 20.4472 7.49628 21.154 8.20312C21.8609 8.90997 22.2143 9.74237 22.2143 10.7003Z" fill="#FAFAFA"/>
</svg>
