<svg width="28" height="28" viewBox="0 0 28 28" fill="none" xmlns="http://www.w3.org/2000/svg">
<path fill-rule="evenodd" clip-rule="evenodd" d="M23.6531 3.97975C22.3962 2.71359 20.9002 1.70976 19.252 1.02658C17.6039 0.343401 15.8365 -0.0055259 14.0523 6.61656e-05C6.57813 6.61656e-05 0.488282 6.08678 0.488282 13.5696C0.486152 15.9505 1.1113 18.2899 2.30078 20.3524L0.375 27.3837L7.56875 25.4954C9.55807 26.5798 11.7874 27.1484 14.0531 27.1493H14.0586C21.5375 27.1493 27.6281 21.0626 27.6281 13.5798C27.6322 11.7965 27.2828 10.0302 26.6001 8.38283C25.9174 6.73546 24.915 5.23973 23.6508 3.9821L23.6531 3.97975ZM14.0562 24.8649C12.0352 24.8653 10.0512 24.3218 8.3125 23.2915L7.89922 23.0454L3.63047 24.1618L4.77031 20.0001L4.50313 19.5727C3.36982 17.7768 2.77073 15.6956 2.77578 13.5719C2.77578 7.35007 7.83594 2.28678 14.0625 2.28678C15.5441 2.28699 17.0112 2.57918 18.3799 3.14666C19.7486 3.71413 20.992 4.54577 22.0391 5.59403C23.0862 6.6423 23.9165 7.88664 24.4824 9.25593C25.0484 10.6252 25.3389 12.0926 25.3375 13.5743C25.332 19.7985 20.2727 24.8602 14.0555 24.8602L14.0562 24.8649ZM20.2398 16.4118C19.9023 16.2399 18.2336 15.4219 17.9234 15.3087C17.6133 15.1954 17.3883 15.1376 17.1578 15.4805C16.9273 15.8235 16.2812 16.5829 16.0828 16.8087C15.8844 17.0344 15.6875 17.0657 15.3508 16.8938C15.0141 16.7219 13.9172 16.3649 12.6227 15.2094C11.6164 14.311 10.9344 13.1985 10.7359 12.8657C10.5375 12.5329 10.7133 12.3415 10.8859 12.1758C11.0422 12.0251 11.2234 11.7805 11.3945 11.5821C11.5656 11.3837 11.6195 11.2446 11.732 11.0149C11.8445 10.7852 11.7898 10.5915 11.7047 10.4212C11.6195 10.2508 10.9391 8.58132 10.6625 7.90163C10.3898 7.23678 10.1063 7.32975 9.89766 7.31803C9.68906 7.30632 9.47422 7.30788 9.25 7.30788C9.07839 7.31248 8.90956 7.35238 8.75404 7.4251C8.59853 7.49782 8.45966 7.60179 8.34609 7.73053C8.03359 8.06803 7.15859 8.89147 7.15859 10.5602C7.15859 12.229 8.37266 13.8415 8.54297 14.0688C8.71328 14.2962 10.9344 17.7219 14.3352 19.1891C15.143 19.536 15.7742 19.7446 16.2664 19.9063C16.9581 20.1147 17.6885 20.1604 18.4008 20.0399C19.0531 19.9438 20.407 19.2204 20.6906 18.429C20.9742 17.6376 20.9742 16.9579 20.8898 16.818C20.8055 16.6782 20.5844 16.5837 20.2422 16.4102L20.2398 16.4118Z" fill="url(#paint0_linear_437:723)"/>
<defs>
<linearGradient id="paint0_linear_437:723" x1="13.9427" y1="0.0226985" x2="13.9427" y2="27.2877" gradientUnits="userSpaceOnUse">
<stop stop-color="#61FD7D"/>
<stop offset="1" stop-color="#2BB826"/>
</linearGradient>
</defs>
</svg>
