<?xml version="1.0" encoding="UTF-8"?><!DOCTYPE svg PUBLIC "-//W3C//DTD SVG 1.1//EN" "http://www.w3.org/Graphics/SVG/1.1/DTD/svg11.dtd"><svg xmlns="http://www.w3.org/2000/svg"><defs>
        <linearGradient id="a" x1="7.917" y1="6.239" x2="41.77" y2="38.723" gradientUnits="userSpaceOnUse">
            <stop stop-color="#294170"/>
            <stop offset="1" stop-color="#4267B2"/>
        </linearGradient>
    
        <linearGradient id="a" x1="1.786" y1="25.681" x2="26.444" y2="4.353" gradientUnits="userSpaceOnUse">
            <stop stop-color="#FD5"/>
            <stop offset=".5" stop-color="#FF543E"/>
            <stop offset="1" stop-color="#C837AB"/>
        </linearGradient>
    
        <clipPath id="a">
            <path d="M0 0h23v23H0z"/>
        </clipPath>
    
        <linearGradient id="a" x1="13.943" y1=".023" x2="13.943" y2="27.288" gradientUnits="userSpaceOnUse">
            <stop stop-color="#61FD7D"/>
            <stop offset="1" stop-color="#2BB826"/>
        </linearGradient>
    </defs><symbol id="icon-eye" viewBox="0 0 16 10">
    <path d="M7.724 1.786c3.054 0 5.183 1.936 6.11 2.98-.901 1.18-3.03 3.448-6.11 3.448-2.841 0-5.098-2.273-6.093-3.476.96-1.058 3.097-2.952 6.093-2.952zm0-1.286C2.858.5 0 4.711 0 4.711S3.108 9.5 7.724 9.5c4.971 0 7.705-4.789 7.705-4.789S12.67.5 7.724.5zm-.01 1.929a2.572 2.572 0 1 0 .001 5.143 2.572 2.572 0 0 0 0-5.143z"/>
</symbol><symbol id="icon-fb" viewBox="0 0 12 23">
    <path d="M7.555 22.72V12.643h3.397L11.46 8.7H7.556V6.188c0-1.139.316-1.915 1.95-1.915h2.07V.755C11.215.707 9.979.6 8.541.6 5.54.6 3.484 2.432 3.484 5.798V8.7H.1v3.944h3.384v10.075h4.07z"/>
</symbol><symbol id="icon-form" viewBox="0 0 45 49">
    <path d="M16.632 46.062l-.002-.001-10.26-5.922A11.74 11.74 0 0 1 .5 29.988V18.144c0-4.177 2.244-8.062 5.87-10.15v-.001l10.26-5.922.002-.001A11.68 11.68 0 0 1 22.5.5c2.056 0 4.093.536 5.868 1.57l.002.001 10.26 5.922a11.74 11.74 0 0 1 5.87 10.151v11.844a11.74 11.74 0 0 1-5.87 10.15L28.371 46.06a11.814 11.814 0 0 1-5.871 1.572c-2.056 0-4.093-.536-5.868-1.57z"/>
    
</symbol><symbol id="icon-instagram" viewBox="0 0 27 28">
    <path d="M13.297.813C7.851.813 2.68.328.704 5.398c-.816 2.094-.698 4.814-.698 8.708 0 3.417-.11 6.628.698 8.706 1.97 5.073 7.184 4.587 12.59 4.587 5.216 0 10.593.543 12.593-4.587.817-2.115.697-4.794.697-8.706 0-5.193.287-8.546-2.232-11.063-2.55-2.55-5.998-2.23-11.06-2.23h.005zm-1.19 2.395c11.36-.018 12.806-1.28 12.009 16.265-.284 6.205-5.009 5.524-10.817 5.524-10.59 0-10.894-.303-10.894-10.897 0-10.718.84-10.886 9.702-10.895v.003zm8.285 2.207a1.595 1.595 0 1 0 0 3.19 1.595 1.595 0 0 0 0-3.19zm-7.095 1.864a6.826 6.826 0 0 0 0 13.652 6.824 6.824 0 0 0 6.824-6.825 6.825 6.825 0 0 0-6.823-6.827zm0 2.396c5.858 0 5.866 8.862 0 8.862-5.856 0-5.865-8.862 0-8.862z"/>
    
</symbol><symbol id="icon-linkedin" viewBox="0 0 23 23">
    <g clip-path="url(#a)">
        <path d="M4.772 3.354A2.386 2.386 0 0 1 2.397 5.75 2.386 2.386 0 0 1 .019 3.354 2.387 2.387 0 0 1 2.396.958a2.387 2.387 0 0 1 2.377 2.396zm.02 4.313H0V23h4.792V7.667zm7.65 0H7.68V23h4.762v-8.05c0-4.474 5.778-4.84 5.778 0V23H23V13.29c0-7.552-8.55-7.277-10.559-3.56V7.668z"/>
    </g>
    
</symbol><symbol id="icon-moon" viewBox="37.747 28.646 24.458 34.34">
    <style>
        .st0{fill:#231815}
    </style>
    <path class="st0" d="M48.133 45.764c.071 6.254-3.663 11.861-9.387 14.33-.891.384-.417 1.542.265 1.797a17.164 17.164 0 0 0 21.83-9.35c1.666-3.971 1.834-8.522.347-12.581a17.16 17.16 0 0 0-15.962-11.312 17.142 17.142 0 0 0-6.765 1.316c-.67.279-1.105 1.455-.203 1.805 5.811 2.272 9.733 7.74 9.881 13.994.03 1.265 1.993 1.231 1.963-.034-.162-6.887-4.465-13.168-10.904-15.684l-.203 1.805c3.845-1.601 8.249-1.69 12.085-.006a15.483 15.483 0 0 1 7.76 7.538c3.31 6.967.576 15.574-6.005 19.5-4.041 2.412-8.962 2.749-13.35 1.099l.265 1.797c6.346-2.738 10.428-9.167 10.351-16.055-.02-1.258-1.982-1.223-1.968.041z"/>
</symbol><symbol id="icon-pinterest" viewBox="0 0 20 25">
    <path fill-rule="evenodd" clip-rule="evenodd" d="M4.606 24.86a9.677 9.677 0 0 0 2.79-4.766l.947-3.613c.492.95 1.953 1.748 3.477 1.748 4.583 0 7.88-4.209 7.88-9.44C19.7 3.766 15.606 0 10.336 0 3.776 0 .3 4.404.3 9.196c0 2.223 1.185 5 3.083 5.879.283.143.44.075.505-.208.045-.219.306-1.24.426-1.726a.453.453 0 0 0-.104-.44 5.915 5.915 0 0 1-1.133-3.463c0-3.35 2.536-6.595 6.856-6.595 3.733 0 6.344 2.536 6.344 6.185 0 4.112-2.074 6.963-4.775 6.963-1.494 0-2.605-1.23-2.246-2.747.432-1.83 1.253-3.78 1.253-5.079 0-1.162-.619-2.132-1.924-2.132-1.53 0-2.747 1.573-2.747 3.692-.01.775.143 1.543.449 2.256 0 0-1.5 6.36-1.778 7.552-.306 1.302-.188 3.154-.052 4.358l.134 1.179.016-.01z"/>
</symbol><symbol id="icon-sign-in" viewBox="0 0 40 40">
    <path fill-rule="evenodd" clip-rule="evenodd" d="M20 0c11.038 0 20 8.962 20 20s-8.962 20-20 20S0 31.038 0 20 8.962 0 20 0zm13.545 32.35c-.47-.668-1.287-1.09-2.707-1.417-6.413-1.51-6.828-2.501-7.253-3.431-.432-.942-.317-2.05.342-3.295 2.876-5.429 3.483-10.04 1.711-12.984-1.123-1.865-3.125-2.89-5.638-2.89-2.535 0-4.553 1.044-5.682 2.939-1.776 2.981-1.155 7.573 1.749 12.928.67 1.237.793 2.343.366 3.29-.441.977-1.018 1.983-7.275 3.443-1.42.327-2.236.749-2.705 1.414A18.283 18.283 0 0 0 20 38.333a18.289 18.289 0 0 0 13.545-5.983zm1.083-1.303A18.248 18.248 0 0 0 38.333 20C38.333 9.882 30.118 1.667 20 1.667 9.882 1.667 1.667 9.882 1.667 20c0 4.145 1.378 7.972 3.703 11.043.682-.753 1.748-1.35 3.415-1.735 3.375-.77 5.627-1.393 6.13-2.503.203-.453.102-1.047-.313-1.812-3.195-5.891-3.804-11.068-1.717-14.575C14.307 8.033 16.898 6.667 20 6.667c3.075 0 5.652 1.346 7.067 3.696 2.085 3.465 1.493 8.659-1.667 14.624-.408.771-.507 1.368-.298 1.823.508 1.113 2.74 1.73 6.111 2.498 1.667.384 2.734.984 3.415 1.739z"/>
</symbol><symbol id="icon-sun" viewBox="6.563 6.528 46.95 46.95">
    <style>
        .st0{fill:#fdac34}
    </style>
    <path class="st0" d="M30.037 44.786c-8.152 0-14.783-6.632-14.783-14.783s6.631-14.782 14.783-14.782c8.151 0 14.783 6.631 14.783 14.782s-6.631 14.783-14.783 14.783zm0-27.691c-7.118 0-12.908 5.79-12.908 12.907 0 7.118 5.791 12.908 12.908 12.908 7.117 0 12.908-5.791 12.908-12.908 0-7.116-5.79-12.907-12.908-12.907z"/>
    <path class="st0" d="M30.037 53.478a.939.939 0 0 1-.938-.938v-5.004a.938.938 0 0 1 1.876 0v5.004c0 .517-.42.938-.938.938z"/>
    <path class="st0" d="M30.037 13.408a.939.939 0 0 1-.938-.938V7.465a.939.939 0 0 1 1.876 0v5.005c0 .518-.42.938-.938.938z"/>
    <path class="st0" d="M52.575 30.94H47.57a.939.939 0 0 1 0-1.876h5.004a.939.939 0 0 1 .001 1.876z"/>
    <path class="st0" d="M12.504 30.94H7.5a.939.939 0 0 1 0-1.876h5.004a.939.939 0 0 1 0 1.876z"/>
    <path class="st0" d="M45.973 46.877a.933.933 0 0 1-.663-.275l-3.538-3.539a.938.938 0 0 1 1.326-1.326l3.538 3.539a.938.938 0 0 1-.663 1.601z"/>
    <path class="st0" d="M17.639 18.543a.933.933 0 0 1-.663-.275l-3.538-3.539a.938.938 0 0 1 1.326-1.326l3.538 3.539a.938.938 0 0 1-.663 1.601z"/>
    <path class="st0" d="M42.435 18.543a.938.938 0 0 1-.663-1.601l3.539-3.539a.938.938 0 0 1 1.326 1.326l-3.539 3.539a.937.937 0 0 1-.663.275z"/>
    <path class="st0" d="M14.101 46.877a.938.938 0 0 1-.663-1.601l3.539-3.539a.938.938 0 0 1 1.326 1.326l-3.539 3.539a.933.933 0 0 1-.663.275z"/>
</symbol><symbol id="icon-telegram" viewBox="0 0 26 22">
    <path d="M9.483 18.554c-.774 0-.703-.281-.914-.985l-2.25-7.382L23.545.062" fill="currentColor"/>
    <path d="M9.483 18.554c.492 0 .773-.281 1.125-.563l3.164-3.023-3.938-2.39" fill="currentColor"/>
    <path d="M9.934 14.077l9.493 6.961c.984.633 1.828.281 2.109-.984l3.867-18.141c.352-1.547-.633-2.25-1.687-1.758L1.146 8.874c-1.477.562-1.477 1.476-.282 1.828L6.7 12.53l13.36-8.508c.632-.351 1.195-.21.773.282"/>
</symbol><symbol id="icon-twitter" viewBox="0 0 25 20">
    <path d="M24.188 2.3a5.063 5.063 0 0 1-2.813.843 5.063 5.063 0 0 0 2.25-2.812 5.063 5.063 0 0 1-3.164 1.195 5.062 5.062 0 0 0-8.578 4.57A14.062 14.062 0 0 1 1.688.893a5.062 5.062 0 0 0 1.546 6.61 5.062 5.062 0 0 1-2.25-.493 5.062 5.062 0 0 0 3.938 4.852 5.063 5.063 0 0 1-2.25.07 5.062 5.062 0 0 0 4.71 3.516A14.062 14.062 0 0 1 0 17.487 14.063 14.063 0 0 0 21.727 4.9a14.064 14.064 0 0 0 2.46-2.602z"/>
</symbol><symbol id="icon-whatsapp" viewBox="0 0 28 28">
    <path fill-rule="evenodd" clip-rule="evenodd" d="M23.653 3.98a13.468 13.468 0 0 0-9.6-3.98C6.577 0 .487 6.087.487 13.57c-.002 2.38.623 4.72 1.813 6.782L.375 27.384l7.194-1.889a13.56 13.56 0 0 0 6.484 1.654h.006c7.479 0 13.57-6.086 13.57-13.57a13.493 13.493 0 0 0-3.978-9.597l.002-.002zm-9.597 20.885c-2.02 0-4.005-.543-5.743-1.573l-.414-.247-4.269 1.117L4.77 20l-.267-.427a11.194 11.194 0 0 1-1.727-6.001c0-6.222 5.06-11.285 11.287-11.285a11.277 11.277 0 0 1 11.274 11.287C25.332 19.8 20.273 24.86 14.056 24.86v.005zm6.184-8.453c-.338-.172-2.006-.99-2.317-1.103-.31-.114-.535-.171-.765.171-.23.343-.877 1.103-1.075 1.329-.199.225-.395.257-.732.085-.337-.172-1.434-.53-2.728-1.685-1.007-.898-1.689-2.01-1.887-2.343-.199-.333-.023-.524.15-.69.156-.15.337-.396.509-.594.17-.198.225-.337.337-.567.113-.23.058-.424-.027-.594-.085-.17-.766-1.84-1.043-2.52-.272-.664-.556-.571-.764-.583-.209-.012-.424-.01-.648-.01a1.25 1.25 0 0 0-.904.423c-.312.337-1.187 1.16-1.187 2.83 0 1.668 1.214 3.28 1.384 3.508.17.227 2.391 3.653 5.792 5.12.808.347 1.44.556 1.931.717a4.688 4.688 0 0 0 2.135.134c.652-.096 2.006-.82 2.29-1.611.283-.791.283-1.471.199-1.611-.085-.14-.306-.234-.648-.408l-.002.002z"/>
    
</symbol></svg>