<?xml version="1.0" encoding="UTF-8"?><!DOCTYPE svg PUBLIC "-//W3C//DTD SVG 1.1//EN" "http://www.w3.org/Graphics/SVG/1.1/DTD/svg11.dtd"><svg xmlns="http://www.w3.org/2000/svg"><symbol id="icon-moon" viewBox="37.747 28.646 24.458 34.34">
    <style>
        .st0{fill:#231815}
    </style>
    <path class="st0" d="M48.133 45.764c.071 6.254-3.663 11.861-9.387 14.33-.891.384-.417 1.542.265 1.797a17.164 17.164 0 0 0 21.83-9.35c1.666-3.971 1.834-8.522.347-12.581a17.16 17.16 0 0 0-15.962-11.312 17.142 17.142 0 0 0-6.765 1.316c-.67.279-1.105 1.455-.203 1.805 5.811 2.272 9.733 7.74 9.881 13.994.03 1.265 1.993 1.231 1.963-.034-.162-6.887-4.465-13.168-10.904-15.684l-.203 1.805c3.845-1.601 8.249-1.69 12.085-.006a15.483 15.483 0 0 1 7.76 7.538c3.31 6.967.576 15.574-6.005 19.5-4.041 2.412-8.962 2.749-13.35 1.099l.265 1.797c6.346-2.738 10.428-9.167 10.351-16.055-.02-1.258-1.982-1.223-1.968.041z"/>
</symbol><symbol id="icon-sign-in" viewBox="0 0 40 40">
    <path fill-rule="evenodd" clip-rule="evenodd" d="M20 0c11.038 0 20 8.962 20 20s-8.962 20-20 20S0 31.038 0 20 8.962 0 20 0zm13.545 32.35c-.47-.668-1.287-1.09-2.707-1.417-6.413-1.51-6.828-2.501-7.253-3.431-.432-.942-.317-2.05.342-3.295 2.876-5.429 3.483-10.04 1.711-12.984-1.123-1.865-3.125-2.89-5.638-2.89-2.535 0-4.553 1.044-5.682 2.939-1.776 2.981-1.155 7.573 1.749 12.928.67 1.237.793 2.343.366 3.29-.441.977-1.018 1.983-7.275 3.443-1.42.327-2.236.749-2.705 1.414A18.283 18.283 0 0 0 20 38.333a18.289 18.289 0 0 0 13.545-5.983zm1.083-1.303A18.248 18.248 0 0 0 38.333 20C38.333 9.882 30.118 1.667 20 1.667 9.882 1.667 1.667 9.882 1.667 20c0 4.145 1.378 7.972 3.703 11.043.682-.753 1.748-1.35 3.415-1.735 3.375-.77 5.627-1.393 6.13-2.503.203-.453.102-1.047-.313-1.812-3.195-5.891-3.804-11.068-1.717-14.575C14.307 8.033 16.898 6.667 20 6.667c3.075 0 5.652 1.346 7.067 3.696 2.085 3.465 1.493 8.659-1.667 14.624-.408.771-.507 1.368-.298 1.823.508 1.113 2.74 1.73 6.111 2.498 1.667.384 2.734.984 3.415 1.739z"/>
</symbol><symbol id="icon-sun" viewBox="6.563 6.528 46.95 46.95">
    <style>
        .st0{fill:#fdac34}
    </style>
    <path class="st0" d="M30.037 44.786c-8.152 0-14.783-6.632-14.783-14.783s6.631-14.782 14.783-14.782c8.151 0 14.783 6.631 14.783 14.782s-6.631 14.783-14.783 14.783zm0-27.691c-7.118 0-12.908 5.79-12.908 12.907 0 7.118 5.791 12.908 12.908 12.908 7.117 0 12.908-5.791 12.908-12.908 0-7.116-5.79-12.907-12.908-12.907z"/>
    <path class="st0" d="M30.037 53.478a.939.939 0 0 1-.938-.938v-5.004a.938.938 0 0 1 1.876 0v5.004c0 .517-.42.938-.938.938z"/>
    <path class="st0" d="M30.037 13.408a.939.939 0 0 1-.938-.938V7.465a.939.939 0 0 1 1.876 0v5.005c0 .518-.42.938-.938.938z"/>
    <path class="st0" d="M52.575 30.94H47.57a.939.939 0 0 1 0-1.876h5.004a.939.939 0 0 1 .001 1.876z"/>
    <path class="st0" d="M12.504 30.94H7.5a.939.939 0 0 1 0-1.876h5.004a.939.939 0 0 1 0 1.876z"/>
    <path class="st0" d="M45.973 46.877a.933.933 0 0 1-.663-.275l-3.538-3.539a.938.938 0 0 1 1.326-1.326l3.538 3.539a.938.938 0 0 1-.663 1.601z"/>
    <path class="st0" d="M17.639 18.543a.933.933 0 0 1-.663-.275l-3.538-3.539a.938.938 0 0 1 1.326-1.326l3.538 3.539a.938.938 0 0 1-.663 1.601z"/>
    <path class="st0" d="M42.435 18.543a.938.938 0 0 1-.663-1.601l3.539-3.539a.938.938 0 0 1 1.326 1.326l-3.539 3.539a.937.937 0 0 1-.663.275z"/>
    <path class="st0" d="M14.101 46.877a.938.938 0 0 1-.663-1.601l3.539-3.539a.938.938 0 0 1 1.326 1.326l-3.539 3.539a.933.933 0 0 1-.663.275z"/>
</symbol></svg>